<?xml version="1.0" encoding="UTF-8"?>
<svg width="770px" height="989px" viewBox="0 0 770 989" version="1.1" xmlns="http://www.w3.org/2000/svg" xmlns:xlink="http://www.w3.org/1999/xlink">
    <!-- Generator: Sketch 53.2 (72643) - https://sketchapp.com -->
    <title>Group</title>
    <desc>Created with Sketch.</desc>
    <defs>
        <linearGradient x1="76.1069489%" y1="56.0575466%" x2="31.7526639%" y2="40.6949883%" id="linearGradient-1">
            <stop stop-color="#0091E7" offset="0%"></stop>
            <stop stop-color="#0059A6" offset="100%"></stop>
        </linearGradient>
        <linearGradient x1="79.3577381%" y1="0%" x2="79.3577381%" y2="100%" id="linearGradient-2">
            <stop stop-color="#00B3FF" offset="0%"></stop>
            <stop stop-color="#008AF0" offset="100%"></stop>
        </linearGradient>
        <linearGradient x1="79.4760724%" y1="100%" x2="79.4760724%" y2="0%" id="linearGradient-3">
            <stop stop-color="#00B3FF" offset="0%"></stop>
            <stop stop-color="#008AF0" offset="100%"></stop>
        </linearGradient>
    </defs>
    <g id="Page-1" stroke="none" stroke-width="1" fill="none" fill-rule="evenodd">
        <g id="Artboard" transform="translate(-127.000000, -20.000000)">
            <g id="Group" transform="translate(127.000000, 20.000000)">
                <path d="M384.894952,391.730444 L565.787176,391.730444 L673.986357,593.269556 L384.894952,593.269556 L203.162347,593.269556 L94.9631651,391.730444 L384.894952,391.730444 Z" id="Combined-Shape" fill="url(#linearGradient-1)"></path>
                <path d="M312.881754,26.3663809 C330.814132,9.98973166 354.687046,0 380.894952,0 C436.590571,0 481.740791,45.116067 481.740791,100.769556 C481.740791,126.160979 472.342494,149.358973 456.832302,167.079622 L456.908518,167.154124 L455.602102,168.459553 C453.394395,170.890973 451.069452,173.214158 448.636191,175.420195 L353.98414,270.000648 L353.950697,269.96723 L203.162347,420.64152 L203.213249,420.692384 C184.636402,438.97005 173.11869,464.39099 173.11869,492.5 C173.11869,548.153489 218.26891,593.269556 273.964529,593.269556 C274.174776,593.269556 274.384872,593.268913 274.594816,593.267629 L274.594816,593.269556 L181.102319,593.269556 C180.787367,593.268746 180.472223,593.269556 180.156889,593.269556 C80.6589869,593.269556 -1.42108547e-13,512.671582 -1.42108547e-13,413.248943 C-1.42108547e-13,362.815984 20.7544432,317.226818 54.1943803,284.544291 L312.723017,26.2112139 L312.881754,26.3663809 Z" id="Combined-Shape" fill="url(#linearGradient-2)"></path>
                <path d="M597.070484,422.027931 C615.377842,403.332775 640.910041,391.730444 669.154161,391.730444 C724.84978,391.730444 770,436.846511 770,492.5 C770,522.081652 757.243841,548.686198 736.92821,567.120879 L638.243348,665.731092 L638.209906,665.697674 L487.421555,816.371964 L487.472458,816.422828 C468.89561,834.700494 457.377899,860.121434 457.377899,888.230444 C457.377899,943.883933 502.528119,989 558.223738,989 C558.433984,989 558.644081,988.999357 558.854025,988.998073 L558.854025,989 L465.361528,989 C465.046575,988.99919 464.731431,989 464.416098,989 C364.918196,989 284.259209,908.402026 284.259209,808.979387 C284.259209,758.546428 305.013652,712.957262 338.453589,680.274735 L596.982226,421.941658 L597.070484,422.027931 Z" id="Combined-Shape" fill="url(#linearGradient-3)" transform="translate(527.129604, 690.365222) rotate(-180.000000) translate(-527.129604, -690.365222) "></path>
            </g>
        </g>
    </g>
</svg>